<svg xmlns="http://www.w3.org/2000/svg" width="158" height="26" viewBox="0 0 158 26" fill="none">
  <g clip-path="url(#clip0_114_1248)">
    <path d="M64.9228 8.67603V13.4593C64.9228 15.0891 65.3264 16.1166 66.427 17.2504L66.9041 17.7465L67.4177 17.2504C68.5186 16.1166 68.9222 15.0537 68.9222 13.4593V8.67623H72.151V13.4593C72.151 17.5693 69.9496 19.1637 68.702 20.4392H65.1062C63.8587 19.1637 61.6572 17.5693 61.6572 13.4593V8.67623L64.9228 8.67603ZM35.1291 20.4038H38.358V14.4513H40.8162C42.1737 14.4513 42.9444 14.4513 42.9444 15.7977V20.4037H46.1733V15.7269C46.1733 13.3884 45.8064 12.1837 42.9077 11.8294L46.3566 5.9478H42.6141L39.2385 11.7231H38.3212V5.9478H35.0923V20.4038H35.1291ZM107.265 11.4041H104.146V20.4038H100.917V11.4041H97.7981V8.67584H107.264L107.265 11.4041ZM55.9332 17.8527H51.9338V8.67599H48.705V20.4038H59.1621V8.67603H55.9332V17.8527ZM83.4153 11.2271H77.8748V13.2466H83.0852V15.7977H77.9115V17.8173H83.5621V20.3684H74.646V8.64055H83.4153V11.2271ZM90.8271 13.1758C89.4696 13.1758 88.6989 13.1758 88.6989 11.8294V8.67603H85.4701V11.9003C85.4701 14.345 85.8737 15.5497 89.0658 15.8332V20.4038H92.2947V15.8332C94.8265 15.5852 95.8904 14.5576 95.8904 11.9003V8.67603H92.6615V11.6877C92.6984 13.0695 92.2213 13.1758 90.8271 13.1758V13.1758ZM127.152 16.2937V8.67603H130.381V16.5064C130.381 19.6243 128.84 20.5101 125.281 20.5101C120.437 20.5101 119.887 19.3054 119.887 16.5064V8.67603H123.116V16.4354C123.116 17.7818 123.886 17.7818 125.244 17.7818C126.675 17.7818 127.152 17.6756 127.152 16.2937L127.152 16.2937ZM145.828 20.4037H149.057V15.7977H151.515C152.873 15.7977 153.643 15.7977 153.643 17.1441V20.4038H156.872V17.0732C156.872 14.7702 156.505 13.5301 153.68 13.1758L157.055 8.64055H153.276L150.011 13.0696H149.057V8.64055H145.828L145.828 20.4037ZM140.031 20.4037L137.462 16.9669H136.105V20.4038H132.876V8.67603H143.296V16.967H141.242L143.81 20.4038L140.031 20.4037ZM140.067 11.404H136.105V14.2385H140.067L140.067 11.404ZM119.116 5.94761H108.109V8.6758H111.998V20.4038H115.227V8.67603H119.117L119.116 5.94761ZM125.427 5.94761L127.115 4.31775L128.803 5.94761L127.115 7.57743L125.427 5.94761ZM123.152 7.57743L124.84 5.94761L123.152 4.31799L121.465 5.94784L123.152 7.57743Z" fill="#16A085"/>
    <path d="M15.1356 0C7.78792 0 1.83057 5.81657 1.83057 12.9918C1.83057 19.694 7.02837 25.2094 13.7027 25.9073L18.0292 23.4109L17.2059 25.826C23.5705 24.8553 28.4407 19.479 28.4407 12.9918C28.4407 5.81657 22.4839 0 15.1356 0ZM22.1615 6.03947L26.3302 8.48686L24.2394 8.49032C23.3192 8.49228 22.5872 8.83646 21.9227 9.25211L15.6605 13.1647L19.3711 6.6715C19.8522 5.82943 21.0835 5.40643 22.1615 6.03947ZM18.0291 18.8812L17.3727 20.8174L15.2467 22.2212L13.9491 21.2894L18.0291 18.8812ZM13.2471 21.0512L12.3685 18.9129L14.5163 20.2107L13.2471 21.0512ZM15.1245 19.9902L13.0513 18.7633L12.3386 16.7438L16.4961 19.0768L15.1245 19.9902ZM12.2985 14.4035L14.5508 15.7324L13.23 16.6621L12.2985 14.4035ZM13.8903 16.8846L18.0321 14.4516L17.2829 16.5334L15.265 17.7246L13.8903 16.8846ZM15.2133 15.5675L13.7615 14.5566H16.5268L15.2133 15.5675ZM12.578 4.11512L15.1377 0.841558L17.6953 4.11512C18.0296 4.54355 17.9566 4.98441 17.7836 5.49658C17.36 6.75135 15.1387 13.0255 15.1387 13.0255C15.1387 13.0255 12.9138 6.75119 12.4898 5.49642C12.3169 4.98441 12.2437 4.54359 12.578 4.11512ZM8.11255 6.03947C9.1905 5.40647 10.4211 5.82947 10.902 6.6715L14.6132 13.1647L8.35095 9.25211C7.68643 8.83654 6.95395 8.49228 6.03377 8.49032L3.94332 8.48686L8.11255 6.03947ZM2.54175 13.7427L3.88348 12.1221C4.98018 10.7962 5.97394 9.53358 8.97289 11.0408L14.3514 13.7443L2.54175 13.7427ZM13.1633 25.4695L12.2802 23.3772L14.503 24.6542L13.1633 25.4695ZM15.2132 24.3788L13.07 23.2063L12.3354 21.1468L16.461 23.5907L15.2132 24.3788ZM17.2138 23.2281L15.8706 22.3717L18.0696 21.0408L17.2138 23.2281ZM17.2138 18.8856L15.8706 18.0297L18.0696 16.6973L17.2138 18.8856ZM15.9224 13.7442L21.2999 11.0407C24.2993 9.53347 25.2936 10.796 26.3904 12.122L27.7318 13.7426L15.9224 13.7442Z" fill="#16A085"/>
  </g>
  <defs>
    <clipPath id="clip0_114_1248">
      <rect width="157" height="26" fill="white" transform="translate(0.5)"/>
    </clipPath>
  </defs>
</svg>